<svg width="1360" height="896" viewBox="0 0 1360 896" fill="none" xmlns="http://www.w3.org/2000/svg">
<g opacity="0.05">
<g style="mix-blend-mode:multiply">
<path d="M33.637 56.5635C15.3477 60.3237 0.784698 43.2861 1.63147 29.9395C2.36803 18.33 22.4611 6.57143 47.0278 3.56203C50.7036 3.11175 54.4796 2.85734 58.3059 2.82861C54.7558 34.5598 51.9263 52.8033 33.637 56.5635Z" fill="white"/>
</g>
<g style="mix-blend-mode:multiply">
<path d="M157.647 56.5635C175.937 60.3237 190.5 43.2861 189.653 29.9395C188.916 18.33 168.823 6.57143 144.256 3.56203C140.581 3.11175 136.805 2.85734 132.978 2.82861C136.528 34.5598 139.358 52.8033 157.647 56.5635Z" fill="white"/>
</g>
<path d="M345.051 85.6004C346.397 128.956 291.657 153.478 254.894 144.894C222.915 137.428 200.185 85.9894 204.064 28.7722C204.645 20.2111 205.821 11.5206 207.651 2.82861C294.287 26.7205 343.704 42.2451 345.051 85.6004Z" fill="white"/>
<g style="mix-blend-mode:multiply">
<path d="M402.215 56.5635C420.504 60.3237 435.067 43.2861 434.221 29.9395C433.484 18.33 413.391 6.57143 388.824 3.56203C385.148 3.11175 381.372 2.85734 377.546 2.82861C381.096 34.5598 383.926 52.8033 402.215 56.5635Z" fill="white"/>
</g>
<path d="M589.618 85.6004C590.965 128.956 536.225 153.478 499.462 144.894C467.483 137.428 444.753 85.9894 448.632 28.7722C449.212 20.2111 450.389 11.5206 452.219 2.82861C538.855 26.7205 588.272 42.2451 589.618 85.6004Z" fill="white"/>
<g style="mix-blend-mode:multiply">
<path d="M646.783 56.5635C665.072 60.3237 679.635 43.2861 678.788 29.9395C678.052 18.33 657.959 6.57143 633.392 3.56203C629.716 3.11175 625.94 2.85734 622.114 2.82861C625.664 34.5598 628.493 52.8033 646.783 56.5635Z" fill="white"/>
</g>
<g style="mix-blend-mode:multiply">
<path d="M672.117 56.5635C653.828 60.3237 639.265 43.2861 640.112 29.9395C640.849 18.33 660.942 6.57143 685.508 3.56203C689.184 3.11175 692.96 2.85734 696.786 2.82861C693.236 34.5598 690.407 52.8033 672.117 56.5635Z" fill="white"/>
</g>
<path d="M908.858 85.6004C910.205 128.956 855.465 153.478 818.702 144.894C786.723 137.428 763.993 85.9894 767.872 28.7722C768.453 20.2111 769.629 11.5206 771.459 2.82861C858.095 26.7205 907.512 42.2451 908.858 85.6004Z" fill="white"/>
<path d="M1078.75 85.6004C1080.1 128.956 1025.36 153.478 988.597 144.894C956.618 137.428 933.888 85.9894 937.767 28.7722C938.348 20.2111 939.524 11.5206 941.354 2.82861C1027.99 26.7205 1077.41 42.2451 1078.75 85.6004Z" fill="white"/>
<path d="M1248.65 85.6004C1249.99 128.956 1195.26 153.478 1158.49 144.894C1126.51 137.428 1103.78 85.9894 1107.66 28.7722C1108.24 20.2111 1109.42 11.5206 1111.25 2.82861C1197.89 26.7205 1247.3 42.2451 1248.65 85.6004Z" fill="white"/>
<g style="mix-blend-mode:multiply">
<path d="M33.637 114.733C15.3477 118.494 0.784698 101.456 1.63147 88.1094C2.36803 76.4999 22.4611 64.7414 47.0278 61.732C50.7036 61.2817 54.4796 61.0273 58.3059 60.9985C54.7558 92.7298 51.9263 110.973 33.637 114.733Z" fill="white"/>
</g>
<g style="mix-blend-mode:multiply">
<path d="M157.647 114.733C175.937 118.494 190.5 101.456 189.653 88.1094C188.916 76.4999 168.823 64.7414 144.256 61.732C140.581 61.2817 136.805 61.0273 132.978 60.9985C136.528 92.7298 139.358 110.973 157.647 114.733Z" fill="white"/>
</g>
<path d="M345.051 143.77C346.397 187.126 291.657 211.647 254.894 203.064C222.915 195.598 200.185 144.159 204.064 86.9422C204.645 78.381 205.821 69.6905 207.651 60.9985C294.287 84.8905 343.704 100.415 345.051 143.77Z" fill="white"/>
<path d="M514.946 143.77C516.292 187.126 461.552 211.647 424.789 203.064C392.811 195.598 370.08 144.159 373.959 86.9422C374.54 78.381 375.716 69.6905 377.546 60.9985C464.183 84.8905 513.599 100.415 514.946 143.77Z" fill="white"/>
<path d="M684.841 143.77C686.187 187.126 631.447 211.647 594.684 203.064C562.706 195.598 539.975 144.159 543.854 86.9422C544.435 78.381 545.611 69.6905 547.441 60.9985C634.078 84.8905 683.495 100.415 684.841 143.77Z" fill="white"/>
<g style="mix-blend-mode:multiply">
<path d="M692.667 114.733C674.378 118.494 659.815 101.456 660.662 88.1094C661.398 76.4999 681.491 64.7414 706.058 61.732C709.734 61.2817 713.51 61.0273 717.336 60.9985C713.786 92.7298 710.957 110.973 692.667 114.733Z" fill="white"/>
</g>
<g style="mix-blend-mode:multiply">
<path d="M767.34 114.733C749.051 118.494 734.488 101.456 735.334 88.1094C736.071 76.4999 756.164 64.7414 780.731 61.732C784.407 61.2817 788.183 61.0273 792.009 60.9985C788.459 92.7298 785.629 110.973 767.34 114.733Z" fill="white"/>
</g>
<path d="M1004.08 143.77C1005.43 187.126 950.687 211.647 913.924 203.064C881.946 195.598 859.215 144.159 863.095 86.9422C863.675 78.381 864.851 69.6905 866.681 60.9985C953.318 84.8905 1002.73 100.415 1004.08 143.77Z" fill="white"/>
<g style="mix-blend-mode:multiply">
<path d="M1061.25 114.733C1079.53 118.494 1094.1 101.456 1093.25 88.1094C1092.51 76.4999 1072.42 64.7414 1047.85 61.732C1044.18 61.2817 1040.4 61.0273 1036.58 60.9985C1040.13 92.7298 1042.96 110.973 1061.25 114.733Z" fill="white"/>
</g>
<path d="M1248.65 143.77C1249.99 187.126 1195.26 211.647 1158.49 203.064C1126.51 195.598 1103.78 144.159 1107.66 86.9422C1108.24 78.381 1109.42 69.6905 1111.25 60.9985C1197.89 84.8905 1247.3 100.415 1248.65 143.77Z" fill="white"/>
<g style="mix-blend-mode:multiply">
<path d="M33.637 172.903C15.3477 176.664 0.784698 159.626 1.63147 146.279C2.36803 134.67 22.4611 122.911 47.0278 119.902C50.7036 119.452 54.4796 119.197 58.3059 119.168C54.7558 150.9 51.9263 169.143 33.637 172.903Z" fill="white"/>
</g>
<path d="M270.378 201.94C271.724 245.296 216.984 269.817 180.221 261.234C148.243 253.768 125.512 202.329 129.392 145.112C129.972 136.551 131.148 127.86 132.978 119.168C219.615 143.06 269.032 158.585 270.378 201.94Z" fill="white"/>
<path d="M440.273 201.94C441.619 245.296 386.88 269.817 350.116 261.234C318.138 253.768 295.407 202.329 299.287 145.112C299.867 136.551 301.043 127.86 302.874 119.168C389.51 143.06 438.927 158.585 440.273 201.94Z" fill="white"/>
<path d="M610.168 201.94C611.514 245.296 556.775 269.817 520.011 261.234C488.033 253.768 465.302 202.329 469.182 145.112C469.762 136.551 470.938 127.86 472.769 119.168C559.405 143.06 608.822 158.585 610.168 201.94Z" fill="white"/>
<path d="M780.063 201.94C781.409 245.296 726.67 269.817 689.906 261.234C657.928 253.768 635.197 202.329 639.077 145.112C639.657 136.551 640.833 127.86 642.664 119.168C729.3 143.06 778.717 158.585 780.063 201.94Z" fill="white"/>
<g style="mix-blend-mode:multiply">
<path d="M837.228 172.903C855.517 176.664 870.08 159.626 869.233 146.279C868.497 134.67 848.404 122.911 823.837 119.902C820.161 119.452 816.385 119.197 812.559 119.168C816.109 150.9 818.938 169.143 837.228 172.903Z" fill="white"/>
</g>
<g style="mix-blend-mode:multiply">
<path d="M862.562 172.903C844.273 176.664 829.71 159.626 830.557 146.279C831.293 134.67 851.386 122.911 875.953 119.902C879.629 119.452 883.405 119.197 887.231 119.168C883.681 150.9 880.852 169.143 862.562 172.903Z" fill="white"/>
</g>
<g style="mix-blend-mode:multiply">
<path d="M937.235 172.903C918.946 176.664 904.383 159.626 905.229 146.279C905.966 134.67 926.059 122.911 950.626 119.902C954.302 119.452 958.078 119.197 961.904 119.168C958.354 150.9 955.524 169.143 937.235 172.903Z" fill="white"/>
</g>
<g style="mix-blend-mode:multiply">
<path d="M1011.91 172.903C993.618 176.664 979.055 159.626 979.902 146.279C980.639 134.67 1000.73 122.911 1025.3 119.902C1028.97 119.452 1032.75 119.197 1036.58 119.168C1033.03 150.9 1030.2 169.143 1011.91 172.903Z" fill="white"/>
</g>
<g style="mix-blend-mode:multiply">
<path d="M1135.92 172.903C1154.21 176.664 1168.77 159.626 1167.92 146.279C1167.19 134.67 1147.09 122.911 1122.53 119.902C1118.85 119.452 1115.08 119.197 1111.25 119.168C1114.8 150.9 1117.63 169.143 1135.92 172.903Z" fill="white"/>
</g>
<path d="M195.706 338.519C197.052 381.874 142.312 406.396 105.549 397.813C73.5704 390.347 50.8397 338.908 54.7191 281.691C55.2996 273.13 56.4758 264.439 58.3059 255.747C144.942 279.639 194.359 295.164 195.706 338.519Z" fill="white"/>
<g style="mix-blend-mode:multiply">
<path d="M252.87 309.482C271.159 313.242 285.722 296.205 284.875 282.858C284.139 271.249 264.046 259.49 239.479 256.481C235.803 256.03 232.027 255.776 228.201 255.747C231.751 287.479 234.581 305.722 252.87 309.482Z" fill="white"/>
</g>
<g style="mix-blend-mode:multiply">
<path d="M327.542 309.482C345.832 313.242 360.395 296.205 359.548 282.858C358.811 271.249 338.718 259.49 314.152 256.481C310.476 256.03 306.7 255.776 302.874 255.747C306.424 287.479 309.253 305.722 327.542 309.482Z" fill="white"/>
</g>
<g style="mix-blend-mode:multiply">
<path d="M352.877 309.482C334.588 313.242 320.025 296.205 320.872 282.858C321.608 271.249 341.701 259.49 366.268 256.481C369.944 256.03 373.72 255.776 377.546 255.747C373.996 287.479 371.166 305.722 352.877 309.482Z" fill="white"/>
</g>
<g style="mix-blend-mode:multiply">
<path d="M427.55 309.482C409.26 313.242 394.697 296.205 395.544 282.858C396.281 271.249 416.374 259.49 440.941 256.481C444.616 256.03 448.392 255.776 452.219 255.747C448.669 287.479 445.839 305.722 427.55 309.482Z" fill="white"/>
</g>
<g style="mix-blend-mode:multiply">
<path d="M502.222 309.482C483.933 313.242 469.37 296.205 470.217 282.858C470.953 271.249 491.046 259.49 515.613 256.481C519.289 256.03 523.065 255.776 526.891 255.747C523.341 287.479 520.512 305.722 502.222 309.482Z" fill="white"/>
</g>
<path d="M738.964 338.519C740.31 381.874 685.57 406.396 648.807 397.813C616.828 390.347 594.098 338.908 597.977 281.691C598.558 273.13 599.734 264.439 601.564 255.747C688.2 279.639 737.617 295.164 738.964 338.519Z" fill="white"/>
<g style="mix-blend-mode:multiply">
<path d="M796.128 309.482C814.417 313.242 828.98 296.205 828.133 282.858C827.397 271.249 807.304 259.49 782.737 256.481C779.061 256.03 775.285 255.776 771.459 255.747C775.009 287.479 777.839 305.722 796.128 309.482Z" fill="white"/>
</g>
<g style="mix-blend-mode:multiply">
<path d="M821.462 309.482C803.173 313.242 788.61 296.205 789.457 282.858C790.194 271.249 810.287 259.49 834.853 256.481C838.529 256.03 842.305 255.776 846.131 255.747C842.581 287.479 839.752 305.722 821.462 309.482Z" fill="white"/>
</g>
<g style="mix-blend-mode:multiply">
<path d="M945.473 309.482C963.762 313.242 978.325 296.205 977.478 282.858C976.742 271.249 956.649 259.49 932.082 256.481C928.406 256.03 924.63 255.776 920.804 255.747C924.354 287.479 927.184 305.722 945.473 309.482Z" fill="white"/>
</g>
<g style="mix-blend-mode:multiply">
<path d="M82.9748 367.652C101.264 371.413 115.827 354.375 114.98 341.028C114.244 329.419 94.1508 317.66 69.584 314.651C65.9082 314.201 62.1322 313.946 58.3059 313.917C61.856 345.649 64.6856 363.892 82.9748 367.652Z" fill="white"/>
</g>
<g style="mix-blend-mode:multiply">
<path d="M157.647 367.652C175.937 371.413 190.5 354.375 189.653 341.028C188.916 329.419 168.823 317.66 144.257 314.651C140.581 314.201 136.805 313.946 132.979 313.917C136.529 345.649 139.358 363.892 157.647 367.652Z" fill="white"/>
</g>
<g style="mix-blend-mode:multiply">
<path d="M232.32 367.652C250.609 371.413 265.172 354.375 264.325 341.028C263.589 329.419 243.496 317.66 218.929 314.651C215.253 314.201 211.477 313.946 207.651 313.917C211.201 345.649 214.031 363.892 232.32 367.652Z" fill="white"/>
</g>
<path d="M419.723 396.689C421.07 440.045 366.33 464.566 329.567 455.983C297.588 448.517 274.858 397.078 278.737 339.861C279.317 331.3 280.494 322.609 282.324 313.917C368.96 337.809 418.377 353.334 419.723 396.689Z" fill="white"/>
<g style="mix-blend-mode:multiply">
<path d="M427.55 367.652C409.261 371.413 394.698 354.375 395.544 341.028C396.281 329.419 416.374 317.66 440.941 314.651C444.616 314.201 448.392 313.946 452.219 313.917C448.669 345.649 445.839 363.892 427.55 367.652Z" fill="white"/>
</g>
<g style="mix-blend-mode:multiply">
<path d="M551.56 367.652C569.849 371.413 584.412 354.375 583.566 341.028C582.829 329.419 562.736 317.66 538.169 314.651C534.494 314.201 530.718 313.946 526.891 313.917C530.441 345.649 533.271 363.892 551.56 367.652Z" fill="white"/>
</g>
<g style="mix-blend-mode:multiply">
<path d="M576.895 367.652C558.606 371.413 544.043 354.375 544.89 341.028C545.626 329.419 565.719 317.66 590.286 314.651C593.962 314.201 597.738 313.946 601.564 313.917C598.014 345.649 595.184 363.892 576.895 367.652Z" fill="white"/>
</g>
<g style="mix-blend-mode:multiply">
<path d="M700.905 367.652C719.195 371.413 733.758 354.375 732.911 341.028C732.174 329.419 712.081 317.66 687.515 314.651C683.839 314.201 680.063 313.946 676.236 313.917C679.787 345.649 682.616 363.892 700.905 367.652Z" fill="white"/>
</g>
<g style="mix-blend-mode:multiply">
<path d="M726.24 367.652C707.951 371.413 693.388 354.375 694.234 341.028C694.971 329.419 715.064 317.66 739.631 314.651C743.307 314.201 747.083 313.946 750.909 313.917C747.359 345.649 744.529 363.892 726.24 367.652Z" fill="white"/>
</g>
<g style="mix-blend-mode:multiply">
<path d="M850.25 367.652C868.54 371.413 883.103 354.375 882.256 341.028C881.519 329.419 861.426 317.66 836.86 314.651C833.184 314.201 829.408 313.946 825.582 313.917C829.132 345.649 831.961 363.892 850.25 367.652Z" fill="white"/>
</g>
<g style="mix-blend-mode:multiply">
<path d="M82.9748 504.231C101.264 507.991 115.827 490.953 114.98 477.607C114.244 465.997 94.1508 454.238 69.584 451.229C65.9082 450.779 62.1322 450.524 58.3059 450.496C61.856 482.227 64.6856 500.47 82.9748 504.231Z" fill="white"/>
</g>
<g style="mix-blend-mode:multiply">
<path d="M108.31 504.231C90.0203 507.991 75.4573 490.953 76.3041 477.607C77.0406 465.997 97.1337 454.238 121.7 451.229C125.376 450.779 129.152 450.524 132.979 450.496C129.428 482.227 126.599 500.47 108.31 504.231Z" fill="white"/>
</g>
<path d="M345.051 533.267C346.397 576.623 291.657 601.145 254.894 592.561C222.915 585.095 200.185 533.656 204.064 476.439C204.645 467.878 205.821 459.188 207.651 450.496C294.287 474.388 343.704 489.912 345.051 533.267Z" fill="white"/>
<path d="M514.946 533.267C516.292 576.623 461.552 601.145 424.789 592.561C392.811 585.095 370.08 533.656 373.959 476.439C374.54 467.878 375.716 459.188 377.546 450.496C464.183 474.388 513.6 489.912 514.946 533.267Z" fill="white"/>
<g style="mix-blend-mode:multiply">
<path d="M522.772 504.231C504.483 507.991 489.92 490.953 490.767 477.607C491.503 465.997 511.596 454.238 536.163 451.229C539.839 450.779 543.615 450.524 547.441 450.496C543.891 482.227 541.062 500.47 522.772 504.231Z" fill="white"/>
</g>
<g style="mix-blend-mode:multiply">
<path d="M646.783 504.231C665.072 507.991 679.635 490.953 678.788 477.607C678.052 465.997 657.958 454.238 633.392 451.229C629.716 450.779 625.94 450.524 622.114 450.496C625.664 482.227 628.493 500.47 646.783 504.231Z" fill="white"/>
</g>
<path d="M834.186 533.267C835.532 576.623 780.792 601.145 744.029 592.561C712.051 585.095 689.32 533.656 693.2 476.439C693.78 467.878 694.956 459.188 696.786 450.496C783.423 474.388 832.84 489.912 834.186 533.267Z" fill="white"/>
<path d="M1004.08 533.267C1005.43 576.623 950.687 601.145 913.924 592.561C881.946 585.095 859.215 533.656 863.095 476.439C863.675 467.878 864.851 459.188 866.681 450.496C953.318 474.388 1002.73 489.912 1004.08 533.267Z" fill="white"/>
<g style="mix-blend-mode:multiply">
<path d="M1061.25 504.231C1079.53 507.991 1094.1 490.953 1093.25 477.607C1092.51 465.997 1072.42 454.238 1047.85 451.229C1044.18 450.779 1040.4 450.524 1036.58 450.496C1040.13 482.227 1042.96 500.47 1061.25 504.231Z" fill="white"/>
</g>
<path d="M1248.65 533.267C1249.99 576.623 1195.26 601.145 1158.49 592.561C1126.51 585.095 1103.78 533.656 1107.66 476.439C1108.24 467.878 1109.42 459.188 1111.25 450.496C1197.89 474.388 1247.3 489.912 1248.65 533.267Z" fill="white"/>
<g style="mix-blend-mode:multiply">
<path d="M82.9748 562.401C101.264 566.161 115.827 549.123 114.98 535.777C114.244 524.167 94.1508 512.409 69.584 509.399C65.9082 508.949 62.1322 508.694 58.3059 508.666C61.856 540.397 64.6856 558.64 82.9748 562.401Z" fill="white"/>
</g>
<path d="M270.378 591.438C271.724 634.793 216.984 659.315 180.221 650.732C148.243 643.265 125.512 591.827 129.392 534.609C129.972 526.048 131.148 517.358 132.978 508.666C219.615 532.558 269.032 548.082 270.378 591.438Z" fill="white"/>
<path d="M440.273 591.438C441.619 634.793 386.88 659.315 350.116 650.732C318.138 643.265 295.407 591.827 299.287 534.609C299.867 526.048 301.043 517.358 302.874 508.666C389.51 532.558 438.927 548.082 440.273 591.438Z" fill="white"/>
<path d="M610.168 591.438C611.514 634.793 556.775 659.315 520.011 650.732C488.033 643.265 465.302 591.827 469.182 534.609C469.762 526.048 470.938 517.358 472.769 508.666C559.405 532.558 608.822 548.082 610.168 591.438Z" fill="white"/>
<g style="mix-blend-mode:multiply">
<path d="M667.333 562.401C685.622 566.161 700.185 549.123 699.338 535.777C698.601 524.167 678.508 512.409 653.942 509.399C650.266 508.949 646.49 508.694 642.664 508.666C646.214 540.397 649.043 558.64 667.333 562.401Z" fill="white"/>
</g>
<g style="mix-blend-mode:multiply">
<path d="M742.005 562.401C760.294 566.161 774.857 549.123 774.011 535.777C773.274 524.167 753.181 512.409 728.614 509.399C724.939 508.949 721.163 508.694 717.336 508.666C720.886 540.397 723.716 558.64 742.005 562.401Z" fill="white"/>
</g>
<g style="mix-blend-mode:multiply">
<path d="M767.34 562.401C749.051 566.161 734.488 549.123 735.334 535.777C736.071 524.167 756.164 512.409 780.731 509.399C784.407 508.949 788.183 508.694 792.009 508.666C788.459 540.397 785.629 558.64 767.34 562.401Z" fill="white"/>
</g>
<g style="mix-blend-mode:multiply">
<path d="M891.35 562.401C909.64 566.161 924.203 549.123 923.356 535.777C922.619 524.167 902.526 512.409 877.959 509.399C874.284 508.949 870.508 508.694 866.681 508.666C870.231 540.397 873.061 558.64 891.35 562.401Z" fill="white"/>
</g>
<path d="M1078.75 591.438C1080.1 634.793 1025.36 659.315 988.597 650.732C956.618 643.265 933.888 591.827 937.767 534.609C938.348 526.048 939.524 517.358 941.354 508.666C1027.99 532.558 1077.41 548.082 1078.75 591.438Z" fill="white"/>
<g style="mix-blend-mode:multiply">
<path d="M1135.92 562.401C1154.21 566.161 1168.77 549.123 1167.92 535.777C1167.19 524.167 1147.09 512.409 1122.53 509.399C1118.85 508.949 1115.08 508.694 1111.25 508.666C1114.8 540.397 1117.63 558.64 1135.92 562.401Z" fill="white"/>
</g>
<path d="M195.706 649.607C197.052 692.963 142.312 717.485 105.549 708.901C73.5704 701.435 50.8397 649.996 54.7191 592.779C55.2996 584.218 56.4758 575.528 58.3059 566.836C144.942 590.728 194.359 606.252 195.706 649.607Z" fill="white"/>
<path d="M365.601 649.607C366.947 692.963 312.207 717.485 275.444 708.901C243.465 701.435 220.735 649.996 224.614 592.779C225.195 584.218 226.371 575.528 228.201 566.836C314.837 590.728 364.254 606.252 365.601 649.607Z" fill="white"/>
<path d="M535.496 649.607C536.842 692.963 482.102 717.485 445.339 708.901C413.36 701.435 390.63 649.996 394.509 592.779C395.09 584.218 396.266 575.528 398.096 566.836C484.732 590.728 534.149 606.252 535.496 649.607Z" fill="white"/>
<g style="mix-blend-mode:multiply">
<path d="M592.66 620.571C610.949 624.331 625.512 607.293 624.666 593.947C623.929 582.337 603.836 570.579 579.269 567.569C575.593 567.119 571.817 566.864 567.991 566.836C571.541 598.567 574.371 616.81 592.66 620.571Z" fill="white"/>
</g>
<path d="M780.063 649.607C781.409 692.963 726.67 717.485 689.906 708.901C657.928 701.435 635.197 649.996 639.077 592.779C639.657 584.218 640.833 575.528 642.664 566.836C729.3 590.728 778.717 606.252 780.063 649.607Z" fill="white"/>
<g style="mix-blend-mode:multiply">
<path d="M837.228 620.571C855.517 624.331 870.08 607.293 869.233 593.947C868.497 582.337 848.404 570.579 823.837 567.569C820.161 567.119 816.385 566.864 812.559 566.836C816.109 598.567 818.938 616.81 837.228 620.571Z" fill="white"/>
</g>
<g style="mix-blend-mode:multiply">
<path d="M862.562 620.571C844.273 624.331 829.71 607.293 830.557 593.947C831.293 582.337 851.386 570.579 875.953 567.569C879.629 567.119 883.405 566.864 887.231 566.836C883.681 598.567 880.852 616.81 862.562 620.571Z" fill="white"/>
</g>
<path d="M1099.3 649.607C1100.65 692.963 1045.91 717.485 1009.15 708.901C977.168 701.435 954.438 649.996 958.317 592.779C958.898 584.218 960.074 575.528 961.904 566.836C1048.54 590.728 1097.96 606.252 1099.3 649.607Z" fill="white"/>
<path d="M1269.2 649.607C1270.54 692.963 1215.8 717.485 1179.04 708.901C1147.06 701.435 1124.33 649.996 1128.21 592.779C1128.79 584.218 1129.97 575.528 1131.8 566.836C1218.44 590.728 1267.85 606.252 1269.2 649.607Z" fill="white"/>
<g style="mix-blend-mode:multiply">
<path d="M1326.36 620.571C1344.65 624.331 1359.22 607.293 1358.37 593.947C1357.63 582.337 1337.54 570.579 1312.97 567.569C1309.3 567.119 1305.52 566.864 1301.69 566.836C1305.24 598.567 1308.07 616.81 1326.36 620.571Z" fill="white"/>
</g>
<g style="mix-blend-mode:multiply">
<path d="M33.637 757.149C15.3477 760.91 0.784698 743.872 1.63147 730.525C2.36803 718.916 22.4611 707.157 47.0278 704.148C50.7036 703.698 54.4796 703.443 58.3059 703.415C54.7558 735.146 51.9263 753.389 33.637 757.149Z" fill="white"/>
</g>
<g style="mix-blend-mode:multiply">
<path d="M108.31 757.149C90.0203 760.91 75.4573 743.872 76.3041 730.525C77.0406 718.916 97.1337 707.157 121.7 704.148C125.376 703.698 129.152 703.443 132.979 703.415C129.428 735.146 126.599 753.389 108.31 757.149Z" fill="white"/>
</g>
<g style="mix-blend-mode:multiply">
<path d="M232.32 757.149C250.609 760.91 265.172 743.872 264.325 730.525C263.589 718.916 243.496 707.157 218.929 704.148C215.253 703.698 211.477 703.443 207.651 703.415C211.201 735.146 214.031 753.389 232.32 757.149Z" fill="white"/>
</g>
<g style="mix-blend-mode:multiply">
<path d="M257.655 757.149C239.366 760.91 224.803 743.872 225.649 730.525C226.386 718.916 246.479 707.157 271.046 704.148C274.721 703.698 278.497 703.443 282.324 703.415C278.774 735.146 275.944 753.389 257.655 757.149Z" fill="white"/>
</g>
<path d="M494.396 786.186C495.742 829.542 441.002 854.064 404.239 845.48C372.261 838.014 349.53 786.575 353.41 729.358C353.99 720.797 355.166 712.106 356.996 703.415C443.633 727.306 493.05 742.831 494.396 786.186Z" fill="white"/>
<g style="mix-blend-mode:multiply">
<path d="M502.222 757.149C483.933 760.91 469.37 743.872 470.217 730.525C470.953 718.916 491.046 707.157 515.613 704.148C519.289 703.698 523.065 703.443 526.891 703.415C523.341 735.146 520.512 753.389 502.222 757.149Z" fill="white"/>
</g>
<path d="M738.963 786.186C740.31 829.542 685.57 854.064 648.807 845.48C616.828 838.014 594.098 786.575 597.977 729.358C598.558 720.797 599.734 712.106 601.564 703.415C688.2 727.306 737.617 742.831 738.963 786.186Z" fill="white"/>
<g style="mix-blend-mode:multiply">
<path d="M796.128 757.149C814.417 760.91 828.98 743.872 828.133 730.525C827.397 718.916 807.304 707.157 782.737 704.148C779.061 703.698 775.285 703.443 771.459 703.415C775.009 735.146 777.839 753.389 796.128 757.149Z" fill="white"/>
</g>
<g style="mix-blend-mode:multiply">
<path d="M821.462 757.149C803.173 760.91 788.61 743.872 789.457 730.525C790.194 718.916 810.287 707.157 834.853 704.148C838.529 703.698 842.305 703.443 846.131 703.415C842.581 735.146 839.752 753.389 821.462 757.149Z" fill="white"/>
</g>
<g style="mix-blend-mode:multiply">
<path d="M896.135 757.149C877.846 760.91 863.283 743.872 864.13 730.525C864.866 718.916 884.959 707.157 909.526 704.148C913.202 703.698 916.978 703.443 920.804 703.415C917.254 735.146 914.424 753.389 896.135 757.149Z" fill="white"/>
</g>
<g style="mix-blend-mode:multiply">
<path d="M33.637 893.728C15.3477 897.488 0.784698 880.451 1.63147 867.104C2.36803 855.495 22.4611 843.736 47.0278 840.727C50.7036 840.277 54.4796 840.022 58.3059 839.993C54.7558 871.725 51.9263 889.968 33.637 893.728Z" fill="white"/>
</g>
<g style="mix-blend-mode:multiply">
<path d="M157.647 893.728C175.937 897.488 190.5 880.451 189.653 867.104C188.916 855.495 168.823 843.736 144.256 840.727C140.581 840.277 136.805 840.022 132.978 839.993C136.528 871.725 139.358 889.968 157.647 893.728Z" fill="white"/>
</g>
<g style="mix-blend-mode:multiply">
<path d="M232.32 893.728C250.609 897.488 265.172 880.451 264.325 867.104C263.589 855.495 243.496 843.736 218.929 840.727C215.253 840.277 211.477 840.022 207.651 839.993C211.201 871.725 214.031 889.968 232.32 893.728Z" fill="white"/>
</g>
<g style="mix-blend-mode:multiply">
<path d="M257.655 893.728C239.365 897.488 224.802 880.451 225.649 867.104C226.386 855.495 246.479 843.736 271.046 840.727C274.721 840.277 278.497 840.022 282.324 839.993C278.774 871.725 275.944 889.968 257.655 893.728Z" fill="white"/>
</g>
<g style="mix-blend-mode:multiply">
<path d="M332.327 893.728C314.038 897.488 299.475 880.451 300.322 867.104C301.058 855.495 321.151 843.736 345.718 840.727C349.394 840.277 353.17 840.022 356.996 839.993C353.446 871.725 350.617 889.968 332.327 893.728Z" fill="white"/>
</g>
<g style="mix-blend-mode:multiply">
<path d="M407 893.728C388.711 897.488 374.148 880.451 374.994 867.104C375.731 855.495 395.824 843.736 420.391 840.727C424.067 840.277 427.843 840.022 431.669 839.993C428.119 871.725 425.289 889.968 407 893.728Z" fill="white"/>
</g>
<g style="mix-blend-mode:multiply">
<path d="M531.01 893.728C549.3 897.488 563.863 880.451 563.016 867.104C562.279 855.495 542.186 843.736 517.619 840.727C513.944 840.277 510.168 840.022 506.341 839.993C509.891 871.725 512.721 889.968 531.01 893.728Z" fill="white"/>
</g>
<g style="mix-blend-mode:multiply">
<path d="M556.345 893.728C538.056 897.488 523.493 880.451 524.339 867.104C525.076 855.495 545.169 843.736 569.736 840.727C573.412 840.277 577.188 840.022 581.014 839.993C577.464 871.725 574.634 889.968 556.345 893.728Z" fill="white"/>
</g>
<g style="mix-blend-mode:multiply">
<path d="M631.018 893.728C612.728 897.488 598.165 880.451 599.012 867.104C599.749 855.495 619.842 843.736 644.408 840.727C648.084 840.277 651.86 840.022 655.687 839.993C652.136 871.725 649.307 889.968 631.018 893.728Z" fill="white"/>
</g>
<g style="mix-blend-mode:multiply">
<path d="M705.69 893.728C687.401 897.488 672.838 880.451 673.685 867.104C674.421 855.495 694.514 843.736 719.081 840.727C722.757 840.277 726.533 840.022 730.359 839.993C726.809 871.725 723.979 889.968 705.69 893.728Z" fill="white"/>
</g>
</g>
</svg>
